<svg id="Layer_1" enable-background="new 0 0 512 512" viewBox="0 0 512 512" xmlns="http://www.w3.org/2000/svg"><path d="m500.13 278.46-17.39-5.63c-.41-.13-.58-.27-.77-.76-.94-2.52-1.99-5.04-3.12-7.53-.18-.4-.18-.59.04-1.02l8.3-16.31c3.38-6.61 2.13-14.6-3.14-19.92l-18.85-18.85c-5.29-5.24-13.29-6.49-19.89-3.11l-16.27 8.3c-.47.24-.67.22-1.1.02-2.46-1.12-4.98-2.17-7.49-3.11-.5-.19-.64-.37-.76-.73l-5.64-17.43c-2.29-7.09-8.85-11.85-16.31-11.85h-26.62c-7.58 0-13.98 4.65-16.3 11.84l-5.66 17.4c-.13.4-.27.59-.7.76-2.51.93-5.05 1.97-7.59 3.13-.39.18-.59.2-1-.01l-16.32-8.33c-6.61-3.38-14.6-2.13-19.92 3.14l-18.85 18.85c-5.24 5.29-6.49 13.29-3.11 19.89l8.32 16.3c.21.41.21.62 0 1.07-1.12 2.46-2.17 4.98-3.13 7.56-.13.36-.27.54-.7.69l-17.45 5.65c-3.36 1.1-6.19 3.16-8.25 5.81-.22-.21-.44-.42-.66-.65l-15.44-16.11v-10.52c5.13-3.32 9.97-7.17 14.44-11.54 15.67-15.3 25.24-35.21 27.37-56.66 14.52-3.67 25.06-16.7 25.06-32.35 0-8.28-3.04-15.85-8.05-21.68v-34.07c0-50.28-40.91-91.19-91.19-91.19h-52.19c-19.84 0-36.31 14.66-39.14 33.71-19.54 2.38-34.73 19.08-34.73 39.25v52.29c-5.01 5.84-8.05 13.42-8.05 21.7 0 15.65 10.54 28.68 25.06 32.35 2.13 21.44 11.7 41.36 27.37 56.66 4.47 4.37 9.31 8.22 14.44 11.54v10.51l-15.45 16.12c-3.16 3.31-6.55 5.3-10.99 6.46l-65.68 17.29c-14.98 3.94-25.73 15.37-28.74 30.59l-23.12 117.3c-2.3 11.71.69 23.67 8.22 32.82 7.52 9.14 18.68 14.39 30.61 14.39h259.5.02.02 50.4c11.93 0 23.09-5.24 30.61-14.39s10.52-21.11 8.22-32.83l-3.87-19.63h13.26c7.44 0 14-4.76 16.31-11.85l5.63-17.39c.16-.48.34-.62.76-.77 2.52-.94 5.04-1.99 7.53-3.12.41-.19.62-.19 1 .01l16.32 8.33c6.61 3.38 14.6 2.13 19.92-3.14l18.85-18.85c5.24-5.29 6.49-13.29 3.11-19.89l-8.3-16.27c-.24-.47-.22-.67-.02-1.1 1.15-2.51 2.19-5.05 3.1-7.49.19-.5.39-.64.75-.76l17.42-5.67c7.2-2.33 11.85-8.73 11.85-16.31v-26.62c0-7.45-4.77-14-11.86-16.29zm-374.64-219.54h2.75c4.41 0 7.99-3.58 7.99-7.99v-1.87c0-12.99 10.58-23.56 23.58-23.56h52.19c41.47 0 75.2 33.74 75.2 75.2v23.74c-3.1-.91-6.38-1.38-9.78-1.34v-3.86c0-9.25-3.46-17.56-10-24.02-6.59-6.52-14.92-9.92-24.12-9.79-36.11.31-66.31-2.94-92.32-9.96-.48-.13-.97-.21-1.47-.25-8.2-.64-19.56 2.25-27.16 19.58-3.82 8.7-5.98 19.28-7.66 28.48-1.14-.12-2.29-.18-3.44-.18-3.24 0-6.36.47-9.33 1.34v-41.96c.01-12.99 10.58-23.56 23.57-23.56zm-6.98 122.71c-.11-4.24-3.52-7.66-7.76-7.79-9.46-.27-16.87-7.91-16.87-17.38 0-9.58 7.79-17.38 17.38-17.38 2.3 0 4.58.46 6.77 1.35 2.23.92 4.75.78 6.87-.37s3.6-3.2 4.03-5.57c.27-1.45.54-2.96.81-4.52 3.5-19.68 7.77-38.85 17.91-38.85h.02c27.24 7.25 58.59 10.62 95.81 10.28 4.96-.06 9.13 1.63 12.71 5.17 3.53 3.49 5.25 7.63 5.25 12.66v13.29c0 2.6 1.26 5.03 3.38 6.53s4.84 1.87 7.28 1c1.84-.65 3.79-.99 5.77-.99 9.58 0 17.38 7.79 17.38 17.38 0 9.47-7.41 17.1-16.87 17.38-4.24.12-7.65 3.54-7.76 7.79-1.05 40.86-35.17 74.1-76.06 74.1s-75-33.22-76.05-74.08zm76.06 90.09c11.74 0 23.17-2.23 33.82-6.46v9.18c0 18.65-15.17 33.82-33.82 33.82s-33.82-15.17-33.82-33.82v-9.18c10.65 4.23 22.08 6.46 33.82 6.46zm-97.45 214.78-16.3-135.88c-.08-.63.06-.91.38-1.26.39-.44.67-.56 1.24-.56h224.26c.57 0 .85.13 1.24.56.32.35.45.63.38 1.26l-16.3 135.88zm270.68-8.56c-4.47 5.44-11.13 8.56-18.26 8.56h-41.42l16.08-133.98c.61-5.1-.93-10.01-4.33-13.82-3.45-3.86-8-5.9-13.16-5.9h-224.28c-5.16 0-9.71 2.04-13.16 5.9-3.4 3.81-4.94 8.72-4.33 13.82l16.07 133.98h-41.41c-7.13 0-13.79-3.12-18.26-8.56-4.48-5.44-6.25-12.58-4.88-19.58l23.13-117.29c1.82-9.2 8.06-15.85 17.13-18.23l65.66-17.29c7.26-1.9 13.32-5.46 18.49-10.88l5.93-6.19c6.08 20.64 25.19 35.75 47.77 35.75s41.69-15.11 47.77-35.75l5.92 6.17c5.19 5.43 11.24 8.99 18.49 10.88l65.68 17.29c9.06 2.38 15.3 9.03 17.12 18.22l.94 4.77c.02.11.04.21.06.32l16.37 83.02c.01.05.02.1.03.15l5.73 29.04c1.37 7.02-.41 14.16-4.88 19.6zm-20.22-169.85c0-20.33 16.53-36.88 36.85-36.88 20.33 0 36.88 16.54 36.88 36.88 0 20.32-16.54 36.85-36.88 36.85-6.74 0-13.19-1.78-18.85-5.17l-.35-1.8c-2.18-11.02-8.44-20.04-17.42-25.68-.15-1.39-.23-2.79-.23-4.2zm148.42 13.29c0 .59-.24.92-.8 1.1l-17.46 5.68c-5.03 1.66-8.84 5.31-10.75 10.35-.8 2.16-1.67 4.27-2.65 6.41-2.23 4.83-2.15 10.13.28 14.98l8.34 16.33c.16.32.32.81-.21 1.34l-18.79 18.79c-.56.55-1.05.4-1.37.23l-16.36-8.35c-4.78-2.42-10.09-2.51-14.92-.28-2.12.97-4.29 1.87-6.39 2.65-5.03 1.83-8.72 5.65-10.42 10.8l-5.64 17.42c-.18.54-.54.8-1.1.8h-16.42l-12.01-60.92c4.85 1.44 9.92 2.19 15.11 2.19 29.15 0 52.87-23.7 52.87-52.84 0-29.15-23.72-52.87-52.87-52.87-28.47 0-51.74 22.65-52.79 50.89l-53.18-14 12.66-4.1c5.11-1.68 8.93-5.38 10.74-10.35.81-2.16 1.71-4.33 2.66-6.42 2.25-4.86 2.15-10.17-.28-14.98l-8.34-16.33c-.16-.32-.32-.81.21-1.34l18.79-18.79c.56-.55 1.05-.4 1.37-.23l16.39 8.36c4.79 2.39 10.09 2.48 14.89.26 2.17-.99 4.28-1.86 6.51-2.69 4.97-1.89 8.63-5.69 10.3-10.76l5.67-17.44c.18-.55.51-.79 1.1-.79h26.62c.57 0 .92.25 1.1.79l5.66 17.48c1.66 5.05 5.34 8.86 10.35 10.74 2.16.81 4.33 1.71 6.42 2.66 4.83 2.24 10.13 2.15 14.98-.28l16.33-8.34c.32-.16.81-.32 1.34.21l18.79 18.79c.55.56.4 1.05.23 1.38l-8.28 16.28c-2.47 4.79-2.59 10.12-.34 14.98.97 2.11 1.87 4.28 2.68 6.46 1.88 5 5.69 8.68 10.78 10.35l17.43 5.64c.54.17.79.52.79 1.1v26.66zm-301.43 70.5c-14.19 0-25.74 11.56-25.74 25.77 0 14.19 11.55 25.74 25.74 25.74s25.74-11.55 25.74-25.74c-.01-14.21-11.55-25.77-25.74-25.77zm0 35.52c-5.38 0-9.75-4.37-9.75-9.75 0-5.39 4.37-9.78 9.75-9.78s9.75 4.39 9.75 9.78c0 5.37-4.38 9.75-9.75 9.75z"/></svg>