<?xml version="1.0" encoding="UTF-8"?>
<svg xmlns="http://www.w3.org/2000/svg" xmlns:xlink="http://www.w3.org/1999/xlink" width="24px" height="24px" viewBox="0 0 24 24" version="1.1">
<g id="surface1">
<path style=" stroke:none;fill-rule:nonzero;fill:rgb(0%,0%,0%);fill-opacity:1;" d="M 9 17 C 9 16.449219 9.449219 16 10 16 C 10.550781 16 11 16.449219 11 17 C 11 17.550781 10.550781 18 10 18 C 9.449219 18 9 17.550781 9 17 Z M 9 17 "/>
<path style=" stroke:none;fill-rule:nonzero;fill:rgb(0%,0%,0%);fill-opacity:1;" d="M 15 17 C 15 16.449219 15.449219 16 16 16 C 16.550781 16 17 16.449219 17 17 C 17 17.550781 16.550781 18 16 18 C 15.449219 18 15 17.550781 15 17 Z M 15 17 "/>
<path style=" stroke:none;fill-rule:evenodd;fill:rgb(0%,0%,0%);fill-opacity:1;" d="M 4.5 6.75 C 4.5 6.335938 4.835938 6 5.25 6 L 6.402344 6 C 6.925781 6 7.394531 6.328125 7.574219 6.820312 L 9.722656 12.679688 C 9.902344 13.171875 10.371094 13.5 10.898438 13.5 L 15.308594 13.5 C 15.847656 13.5 16.324219 13.15625 16.496094 12.644531 L 17.710938 9 L 10.5 9 C 10.085938 9 9.75 8.664062 9.75 8.25 C 9.75 7.835938 10.085938 7.5 10.5 7.5 L 18.054688 7.5 C 18.910156 7.5 19.511719 8.335938 19.242188 9.144531 L 17.917969 13.121094 C 17.542969 14.242188 16.492188 15 15.308594 15 L 10.898438 15 C 9.742188 15 8.710938 14.28125 8.316406 13.195312 L 6.226562 7.5 L 5.25 7.5 C 4.835938 7.5 4.5 7.164062 4.5 6.75 Z M 4.5 6.75 "/>
</g>
</svg>
