<?xml version="1.0" encoding="UTF-8"?>
<svg xmlns="http://www.w3.org/2000/svg" xmlns:xlink="http://www.w3.org/1999/xlink" width="24px" height="24px" viewBox="0 0 24 24" version="1.1">
<g id="surface1">
<path style=" stroke:none;fill-rule:nonzero;fill:rgb(0%,0%,0%);fill-opacity:1;" d="M 16.5 0 L 3 0 C 1.34375 0 0 1.34375 0 3 L 0 12 C 0 13.65625 1.34375 15 3 15 L 3 18.75 C 3 19.042969 3.171875 19.308594 3.4375 19.429688 C 3.535156 19.476562 3.644531 19.5 3.75 19.5 C 3.925781 19.5 4.097656 19.4375 4.238281 19.320312 L 9.277344 15 L 16.5 15 C 18.15625 15 19.5 13.65625 19.5 12 L 19.5 3 C 19.5 1.34375 18.15625 0 16.5 0 Z M 18 12 C 18 12.828125 17.328125 13.5 16.5 13.5 L 9 13.5 C 8.820312 13.5 8.648438 13.5625 8.511719 13.679688 L 4.5 17.121094 L 4.5 14.25 C 4.5 13.835938 4.164062 13.5 3.75 13.5 L 3 13.5 C 2.171875 13.5 1.5 12.828125 1.5 12 L 1.5 3 C 1.5 2.171875 2.171875 1.5 3 1.5 L 16.5 1.5 C 17.328125 1.5 18 2.171875 18 3 Z M 18 12 "/>
<path style=" stroke:none;fill-rule:nonzero;fill:rgb(0%,0%,0%);fill-opacity:1;" d="M 21.996094 4.675781 C 21.601562 4.539062 21.175781 4.746094 21.039062 5.140625 C 20.90625 5.53125 21.113281 5.957031 21.503906 6.09375 C 22.097656 6.296875 22.5 6.863281 22.5 7.5 L 22.5 16.5 C 22.5 17.328125 21.828125 18 21 18 L 20.25 18 C 19.835938 18 19.5 18.335938 19.5 18.75 L 19.5 21.621094 L 15.488281 18.179688 C 15.351562 18.0625 15.179688 18 15 18 L 8.355469 18 C 7.941406 18 7.605469 18.335938 7.605469 18.75 C 7.605469 19.164062 7.941406 19.5 8.355469 19.5 L 14.722656 19.5 L 19.761719 23.820312 C 19.902344 23.9375 20.074219 24 20.25 24 C 20.355469 24 20.464844 23.976562 20.5625 23.929688 C 20.828125 23.808594 21 23.542969 21 23.25 L 21 19.5 C 22.65625 19.5 24 18.15625 24 16.5 L 24 7.5 C 24 6.226562 23.195312 5.089844 21.996094 4.675781 Z M 21.996094 4.675781 "/>
<path style=" stroke:none;fill-rule:nonzero;fill:rgb(0%,0%,0%);fill-opacity:1;" d="M 14.25 4.5 L 5.25 4.5 C 4.835938 4.5 4.5 4.835938 4.5 5.25 C 4.5 5.664062 4.835938 6 5.25 6 L 14.25 6 C 14.664062 6 15 5.664062 15 5.25 C 15 4.835938 14.664062 4.5 14.25 4.5 Z M 14.25 4.5 "/>
<path style=" stroke:none;fill-rule:nonzero;fill:rgb(0%,0%,0%);fill-opacity:1;" d="M 11.25 7.5 L 5.25 7.5 C 4.835938 7.5 4.5 7.835938 4.5 8.25 C 4.5 8.664062 4.835938 9 5.25 9 L 11.25 9 C 11.664062 9 12 8.664062 12 8.25 C 12 7.835938 11.664062 7.5 11.25 7.5 Z M 11.25 7.5 "/>
</g>
</svg>
