<?xml version="1.0" encoding="UTF-8"?>
<svg xmlns="http://www.w3.org/2000/svg" xmlns:xlink="http://www.w3.org/1999/xlink" width="24px" height="24px" viewBox="0 0 24 24" version="1.1">
<g id="surface1">
<path style=" stroke:none;fill-rule:nonzero;fill:rgb(0%,0%,0%);fill-opacity:1;" d="M 12 22.664062 C 11.660156 22.664062 11.328125 22.539062 11.070312 22.316406 C 10.101562 21.46875 9.167969 20.671875 8.34375 19.96875 L 8.339844 19.964844 C 5.921875 17.90625 3.832031 16.125 2.378906 14.371094 C 0.757812 12.414062 0 10.554688 0 8.523438 C 0 6.554688 0.675781 4.734375 1.902344 3.402344 C 3.144531 2.054688 4.851562 1.3125 6.703125 1.3125 C 8.089844 1.3125 9.359375 1.75 10.476562 2.613281 C 11.039062 3.050781 11.550781 3.582031 12 4.207031 C 12.449219 3.582031 12.960938 3.050781 13.523438 2.613281 C 14.640625 1.75 15.910156 1.3125 17.296875 1.3125 C 19.148438 1.3125 20.855469 2.054688 22.097656 3.402344 C 23.324219 4.734375 24 6.554688 24 8.523438 C 24 10.554688 23.242188 12.414062 21.621094 14.371094 C 20.167969 16.125 18.078125 17.90625 15.660156 19.964844 C 14.835938 20.667969 13.898438 21.464844 12.925781 22.316406 C 12.671875 22.539062 12.339844 22.664062 12 22.664062 Z M 6.703125 2.71875 C 5.25 2.71875 3.910156 3.300781 2.9375 4.355469 C 1.949219 5.425781 1.40625 6.90625 1.40625 8.523438 C 1.40625 10.230469 2.039062 11.757812 3.460938 13.476562 C 4.835938 15.132812 6.882812 16.878906 9.25 18.894531 L 9.253906 18.898438 C 10.082031 19.605469 11.019531 20.40625 11.996094 21.257812 C 12.980469 20.402344 13.921875 19.601562 14.75 18.894531 C 17.117188 16.878906 19.164062 15.132812 20.539062 13.476562 C 21.960938 11.757812 22.59375 10.230469 22.59375 8.523438 C 22.59375 6.90625 22.050781 5.425781 21.0625 4.355469 C 20.089844 3.300781 18.75 2.71875 17.296875 2.71875 C 16.230469 2.71875 15.25 3.058594 14.382812 3.726562 C 13.613281 4.324219 13.078125 5.074219 12.761719 5.601562 C 12.601562 5.875 12.316406 6.035156 12 6.035156 C 11.683594 6.035156 11.398438 5.875 11.238281 5.601562 C 10.921875 5.074219 10.386719 4.324219 9.617188 3.726562 C 8.75 3.058594 7.769531 2.71875 6.703125 2.71875 Z M 6.703125 2.71875 "/>
</g>
</svg>
