<?xml version="1.0" encoding="UTF-8"?>
<svg xmlns="http://www.w3.org/2000/svg" xmlns:xlink="http://www.w3.org/1999/xlink" width="24px" height="24px" viewBox="0 0 24 24" version="1.1">
<g id="surface1">
<path style=" stroke:none;fill-rule:nonzero;fill:rgb(0%,0%,0%);fill-opacity:1;" d="M 24 16.578125 C 24 16.574219 24 16.566406 24 16.5625 C 24 16.558594 24 16.558594 24 16.558594 C 24 16.550781 24 16.539062 24 16.53125 C 24 16.527344 23.996094 16.523438 23.996094 16.519531 C 23.996094 16.511719 23.996094 16.503906 23.992188 16.496094 C 23.992188 16.492188 23.992188 16.484375 23.992188 16.480469 C 23.988281 16.472656 23.988281 16.46875 23.988281 16.460938 C 23.984375 16.453125 23.984375 16.449219 23.980469 16.441406 C 23.980469 16.4375 23.976562 16.433594 23.976562 16.429688 C 23.972656 16.417969 23.96875 16.410156 23.964844 16.40625 C 23.964844 16.402344 23.964844 16.402344 23.964844 16.402344 L 19.851562 7.355469 L 19.851562 6.167969 L 19.878906 6.167969 C 20.320312 6.167969 20.683594 5.808594 20.683594 5.363281 L 20.683594 5.304688 C 20.683594 4.90625 20.398438 4.574219 20.007812 4.511719 L 13.21875 3.414062 L 13.21875 2.71875 C 13.476562 2.429688 13.632812 2.050781 13.632812 1.632812 C 13.632812 0.734375 12.898438 0 12 0 C 11.101562 0 10.367188 0.734375 10.367188 1.632812 C 10.367188 2.050781 10.523438 2.429688 10.78125 2.71875 L 10.78125 3.375 L 3.988281 4.507812 C 3.601562 4.574219 3.316406 4.90625 3.316406 5.300781 L 3.316406 5.363281 C 3.316406 5.808594 3.679688 6.167969 4.121094 6.167969 L 4.148438 6.167969 L 4.148438 7.355469 L 0.0351562 16.402344 C 0.0351562 16.402344 0.0351562 16.402344 0.0351562 16.40625 C 0.03125 16.410156 0.0273438 16.417969 0.0234375 16.425781 C 0.0234375 16.433594 0.0195312 16.4375 0.0195312 16.441406 C 0.015625 16.449219 0.015625 16.453125 0.0117188 16.460938 C 0.0117188 16.46875 0.0117188 16.472656 0.0078125 16.480469 C 0.0078125 16.484375 0.0078125 16.492188 0.0078125 16.496094 C 0.00390625 16.503906 0.00390625 16.511719 0.00390625 16.519531 C 0.00390625 16.523438 0 16.527344 0 16.53125 C 0 16.539062 0 16.550781 0 16.558594 C 0 16.558594 0 16.558594 0 16.5625 C 0 16.566406 0 16.574219 0 16.578125 C 0 16.582031 0 16.585938 0 16.589844 C 0.0234375 18.191406 2.007812 19.4375 4.535156 19.4375 C 7.0625 19.4375 9.046875 18.191406 9.070312 16.589844 C 9.070312 16.585938 9.070312 16.582031 9.070312 16.578125 C 9.070312 16.574219 9.070312 16.566406 9.070312 16.5625 C 9.070312 16.558594 9.070312 16.558594 9.070312 16.558594 C 9.070312 16.550781 9.070312 16.539062 9.070312 16.53125 C 9.070312 16.527344 9.070312 16.523438 9.070312 16.519531 C 9.066406 16.511719 9.066406 16.503906 9.066406 16.496094 C 9.0625 16.492188 9.0625 16.484375 9.0625 16.480469 C 9.0625 16.472656 9.058594 16.46875 9.058594 16.460938 C 9.054688 16.453125 9.054688 16.449219 9.050781 16.441406 C 9.050781 16.4375 9.046875 16.433594 9.046875 16.429688 C 9.042969 16.417969 9.042969 16.410156 9.039062 16.40625 C 9.039062 16.402344 9.035156 16.402344 9.035156 16.402344 L 4.925781 7.355469 L 4.925781 6.167969 L 10.78125 6.167969 L 10.78125 14.613281 C 10.535156 14.753906 10.367188 15.015625 10.367188 15.316406 L 10.367188 21.042969 L 7.90625 21.8125 C 7.394531 21.972656 7.050781 22.441406 7.050781 22.976562 L 7.050781 23.609375 C 7.050781 23.824219 7.222656 24 7.4375 24 L 16.5625 24 C 16.777344 24 16.949219 23.824219 16.949219 23.609375 L 16.949219 22.976562 C 16.949219 22.441406 16.605469 21.972656 16.09375 21.8125 L 13.632812 21.042969 L 13.632812 15.316406 C 13.632812 15.015625 13.464844 14.753906 13.21875 14.613281 L 13.21875 6.167969 L 19.074219 6.167969 L 19.074219 7.355469 L 14.964844 16.402344 C 14.964844 16.402344 14.960938 16.402344 14.960938 16.40625 C 14.957031 16.410156 14.957031 16.417969 14.953125 16.429688 C 14.953125 16.433594 14.949219 16.4375 14.949219 16.441406 C 14.945312 16.449219 14.945312 16.453125 14.941406 16.460938 C 14.941406 16.46875 14.9375 16.472656 14.9375 16.480469 C 14.9375 16.484375 14.9375 16.492188 14.933594 16.496094 C 14.933594 16.503906 14.933594 16.511719 14.929688 16.519531 C 14.929688 16.523438 14.929688 16.527344 14.929688 16.53125 C 14.929688 16.539062 14.929688 16.550781 14.929688 16.558594 C 14.929688 16.558594 14.929688 16.558594 14.929688 16.5625 C 14.929688 16.566406 14.929688 16.574219 14.929688 16.578125 C 14.929688 16.582031 14.929688 16.585938 14.929688 16.589844 C 14.953125 18.191406 16.9375 19.4375 19.464844 19.4375 C 21.992188 19.4375 23.976562 18.191406 24 16.589844 C 24 16.585938 24 16.582031 24 16.578125 Z M 4.535156 8.378906 L 8.078125 16.171875 L 0.992188 16.171875 Z M 4.535156 18.660156 C 2.734375 18.660156 1.183594 17.910156 0.84375 16.949219 L 8.226562 16.949219 C 7.890625 17.910156 6.335938 18.660156 4.535156 18.660156 Z M 12.855469 15.316406 L 12.855469 20.941406 L 11.144531 20.941406 L 11.144531 15.316406 C 11.144531 15.304688 11.15625 15.292969 11.171875 15.292969 L 12.828125 15.292969 C 12.84375 15.292969 12.855469 15.304688 12.855469 15.316406 Z M 11.558594 14.515625 L 11.558594 3.203125 C 11.699219 3.246094 11.847656 3.265625 12 3.265625 C 12.152344 3.265625 12.300781 3.246094 12.441406 3.203125 L 12.441406 14.515625 Z M 12 0.777344 C 12.472656 0.777344 12.855469 1.160156 12.855469 1.632812 C 12.855469 2.105469 12.472656 2.488281 12 2.488281 C 11.527344 2.488281 11.144531 2.105469 11.144531 1.632812 C 11.144531 1.160156 11.527344 0.777344 12 0.777344 Z M 4.121094 5.390625 C 4.105469 5.390625 4.09375 5.378906 4.09375 5.363281 L 4.09375 5.300781 C 4.09375 5.289062 4.105469 5.277344 4.117188 5.277344 L 10.78125 4.164062 L 10.78125 5.390625 Z M 16.171875 22.976562 L 16.171875 23.222656 L 7.828125 23.222656 L 7.828125 22.976562 C 7.828125 22.78125 7.953125 22.613281 8.136719 22.554688 L 10.816406 21.71875 L 13.183594 21.71875 L 15.863281 22.554688 C 16.046875 22.613281 16.171875 22.78125 16.171875 22.976562 Z M 13.21875 4.203125 L 19.882812 5.277344 C 19.894531 5.28125 19.90625 5.289062 19.90625 5.304688 L 19.90625 5.363281 C 19.90625 5.378906 19.894531 5.390625 19.878906 5.390625 L 13.21875 5.390625 Z M 19.464844 8.378906 L 23.007812 16.171875 L 15.921875 16.171875 Z M 19.464844 18.660156 C 17.664062 18.660156 16.109375 17.910156 15.773438 16.949219 L 23.15625 16.949219 C 22.816406 17.910156 21.265625 18.660156 19.464844 18.660156 Z M 19.464844 18.660156 "/>
</g>
</svg>
