<?xml version="1.0" encoding="UTF-8"?>
<svg xmlns="http://www.w3.org/2000/svg" xmlns:xlink="http://www.w3.org/1999/xlink" width="13px" height="13px" viewBox="0 0 13 13" version="1.1">
<g id="surface1">
<path style=" stroke:none;fill-rule:nonzero;fill:#ffffff;fill-opacity:1;" d="M 3.65625 0.8125 C 3.433594 0.8125 3.25 0.996094 3.25 1.21875 L 3.25 1.625 L 2.4375 1.625 C 1.542969 1.625 0.8125 2.355469 0.8125 3.25 L 0.8125 10.5625 C 0.8125 11.457031 1.542969 12.1875 2.4375 12.1875 L 10.5625 12.1875 C 11.457031 12.1875 12.1875 11.457031 12.1875 10.5625 L 12.1875 3.25 C 12.1875 2.355469 11.457031 1.625 10.5625 1.625 L 9.75 1.625 L 9.75 1.21875 C 9.75 0.996094 9.566406 0.8125 9.34375 0.8125 C 9.121094 0.8125 8.9375 0.996094 8.9375 1.21875 L 8.9375 1.625 L 6.90625 1.625 L 6.90625 1.21875 C 6.90625 0.996094 6.722656 0.8125 6.5 0.8125 C 6.277344 0.8125 6.09375 0.996094 6.09375 1.21875 L 6.09375 1.625 L 4.0625 1.625 L 4.0625 1.21875 C 4.0625 0.996094 3.878906 0.8125 3.65625 0.8125 Z M 2.4375 2.4375 L 3.25 2.4375 L 3.25 2.84375 C 3.25 3.066406 3.433594 3.25 3.65625 3.25 C 3.878906 3.25 4.0625 3.066406 4.0625 2.84375 L 4.0625 2.4375 L 6.09375 2.4375 L 6.09375 2.84375 C 6.09375 3.066406 6.277344 3.25 6.5 3.25 C 6.722656 3.25 6.90625 3.066406 6.90625 2.84375 L 6.90625 2.4375 L 8.9375 2.4375 L 8.9375 2.84375 C 8.9375 3.066406 9.121094 3.25 9.34375 3.25 C 9.566406 3.25 9.75 3.066406 9.75 2.84375 L 9.75 2.4375 L 10.5625 2.4375 C 11.019531 2.4375 11.375 2.792969 11.375 3.25 L 11.375 4.0625 L 1.625 4.0625 L 1.625 3.25 C 1.625 2.792969 1.980469 2.4375 2.4375 2.4375 Z M 1.625 4.875 L 11.375 4.875 L 11.375 10.5625 C 11.375 11.019531 11.019531 11.375 10.5625 11.375 L 2.4375 11.375 C 1.980469 11.375 1.625 11.019531 1.625 10.5625 Z M 1.625 4.875 "/>
<path style=" stroke:none;fill-rule:nonzero;fill:#ffffff;fill-opacity:1;" d="M 3.046875 6.09375 L 3.859375 6.09375 C 3.972656 6.09375 4.0625 6.1875 4.0625 6.296875 L 4.0625 7.109375 C 4.0625 7.222656 3.972656 7.3125 3.859375 7.3125 L 3.046875 7.3125 C 2.9375 7.3125 2.84375 7.222656 2.84375 7.109375 L 2.84375 6.296875 C 2.84375 6.1875 2.9375 6.09375 3.046875 6.09375 Z M 3.046875 6.09375 "/>
<path style=" stroke:none;fill-rule:nonzero;fill:#ffffff;fill-opacity:1;" d="M 5.078125 6.09375 L 5.890625 6.09375 C 6 6.09375 6.09375 6.1875 6.09375 6.296875 L 6.09375 7.109375 C 6.09375 7.222656 6 7.3125 5.890625 7.3125 L 5.078125 7.3125 C 4.964844 7.3125 4.875 7.222656 4.875 7.109375 L 4.875 6.296875 C 4.875 6.1875 4.964844 6.09375 5.078125 6.09375 Z M 5.078125 6.09375 "/>
<path style=" stroke:none;fill-rule:nonzero;fill:#ffffff;fill-opacity:1;" d="M 7.109375 6.09375 L 7.921875 6.09375 C 8.035156 6.09375 8.125 6.1875 8.125 6.296875 L 8.125 7.109375 C 8.125 7.222656 8.035156 7.3125 7.921875 7.3125 L 7.109375 7.3125 C 7 7.3125 6.90625 7.222656 6.90625 7.109375 L 6.90625 6.296875 C 6.90625 6.1875 7 6.09375 7.109375 6.09375 Z M 7.109375 6.09375 "/>
<path style=" stroke:none;fill-rule:nonzero;fill:#ffffff;fill-opacity:1;" d="M 9.140625 6.09375 L 9.953125 6.09375 C 10.0625 6.09375 10.15625 6.1875 10.15625 6.296875 L 10.15625 7.109375 C 10.15625 7.222656 10.0625 7.3125 9.953125 7.3125 L 9.140625 7.3125 C 9.027344 7.3125 8.9375 7.222656 8.9375 7.109375 L 8.9375 6.296875 C 8.9375 6.1875 9.027344 6.09375 9.140625 6.09375 Z M 9.140625 6.09375 "/>
<path style=" stroke:none;fill-rule:nonzero;fill:#ffffff;fill-opacity:1;" d="M 3.046875 8.53125 L 3.859375 8.53125 C 3.972656 8.53125 4.0625 8.621094 4.0625 8.734375 L 4.0625 9.546875 C 4.0625 9.65625 3.972656 9.75 3.859375 9.75 L 3.046875 9.75 C 2.9375 9.75 2.84375 9.65625 2.84375 9.546875 L 2.84375 8.734375 C 2.84375 8.621094 2.9375 8.53125 3.046875 8.53125 Z M 3.046875 8.53125 "/>
<path style=" stroke:none;fill-rule:nonzero;fill:#ffffff;fill-opacity:1;" d="M 5.078125 8.53125 L 5.890625 8.53125 C 6 8.53125 6.09375 8.621094 6.09375 8.734375 L 6.09375 9.546875 C 6.09375 9.65625 6 9.75 5.890625 9.75 L 5.078125 9.75 C 4.964844 9.75 4.875 9.65625 4.875 9.546875 L 4.875 8.734375 C 4.875 8.621094 4.964844 8.53125 5.078125 8.53125 Z M 5.078125 8.53125 "/>
<path style=" stroke:none;fill-rule:nonzero;fill:#ffffff;fill-opacity:1;" d="M 7.109375 8.53125 L 7.921875 8.53125 C 8.035156 8.53125 8.125 8.621094 8.125 8.734375 L 8.125 9.546875 C 8.125 9.65625 8.035156 9.75 7.921875 9.75 L 7.109375 9.75 C 7 9.75 6.90625 9.65625 6.90625 9.546875 L 6.90625 8.734375 C 6.90625 8.621094 7 8.53125 7.109375 8.53125 Z M 7.109375 8.53125 "/>
<path style=" stroke:none;fill-rule:nonzero;fill:#ffffff;fill-opacity:1;" d="M 9.140625 8.53125 L 9.953125 8.53125 C 10.0625 8.53125 10.15625 8.621094 10.15625 8.734375 L 10.15625 9.546875 C 10.15625 9.65625 10.0625 9.75 9.953125 9.75 L 9.140625 9.75 C 9.027344 9.75 8.9375 9.65625 8.9375 9.546875 L 8.9375 8.734375 C 8.9375 8.621094 9.027344 8.53125 9.140625 8.53125 Z M 9.140625 8.53125 "/>
</g>
</svg>
