<svg id="Capa_1" enable-background="new 0 0 509.3 509.3" height="20" viewBox="0 0 509.3 509.3" width="22" xmlns="http://www.w3.org/2000/svg"><g><g id="Export-_x28_Final---R1_x29__10_"><g id="cart_1_"><path id="body_7_" d="m248.005 418.001c0 30.944-25.085 56.029-56.029 56.029s-56.029-25.085-56.029-56.029c0-20.645 11.166-38.683 27.789-48.402-.302-.801-24.252-98.416-71.848-292.845-.78-3.193-3.502-5.502-6.725-5.796l-67.336-.032c-9.845-.001-17.827-7.982-17.827-17.828 0-9.518 7.458-17.293 16.849-17.801l67.616-.026c19.501 0 36.534 13.025 41.717 31.71l8.816 36.014 356.474.003c9.846 0 17.827 7.982 17.827 17.827 0 .709-.235 2.567-.705 5.575l-44.447 178.267c-2.119 8.499-10.011 14.039-18.454 13.48l-258.135.065 9.263 37.915c.78 3.193 3.502 5.502 6.725 5.796l207.451.048c30.944 0 56.029 25.085 56.029 56.029 0 29.001-22.033 52.855-50.273 55.737-1.892.193-3.813.292-5.756.292-30.944 0-56.029-25.085-56.029-56.029 0-7.194 1.356-14.071 3.825-20.389h-114.614c2.47 6.319 3.826 13.196 3.826 20.39zm162.994-20.375c-11.252 0-20.374 9.122-20.374 20.374s9.122 20.374 20.374 20.374 20.374-9.122 20.374-20.374-9.122-20.374-20.374-20.374zm-219.024 0c-11.252 0-20.374 9.122-20.374 20.374s9.122 20.374 20.374 20.374 20.374-9.122 20.374-20.374c.001-11.252-9.121-20.374-20.374-20.374zm276.815-258.977h-325.081l35.146 143.919 254.057-.01z" fill="#fff"/></g></g></g></svg>