<?xml version="1.0" encoding="UTF-8"?>
<svg xmlns="http://www.w3.org/2000/svg" xmlns:xlink="http://www.w3.org/1999/xlink" width="20px" height="20px" viewBox="0 0 20 20" version="1.1">
<g id="surface1">
<path style=" stroke:none;fill-rule:nonzero;fill:rgb(0%,0%,0%);fill-opacity:1;" d="M 14.210938 20 C 13.789062 20 13.394531 19.835938 13.09375 19.539062 L 4.671875 11.117188 C 4.375 10.816406 4.210938 10.421875 4.210938 10 C 4.210938 9.578125 4.375 9.179688 4.671875 8.882812 L 13.09375 0.460938 C 13.390625 0.164062 13.789062 0 14.210938 0 C 14.632812 0 15.027344 0.164062 15.328125 0.460938 C 15.625 0.761719 15.789062 1.15625 15.789062 1.578125 C 15.789062 2 15.625 2.398438 15.328125 2.695312 L 8.023438 10 L 15.328125 17.304688 C 15.625 17.601562 15.789062 18 15.789062 18.421875 C 15.789062 18.84375 15.625 19.238281 15.328125 19.539062 C 15.027344 19.835938 14.632812 20 14.210938 20 Z M 14.210938 20 "/>
</g>
</svg>
