<svg height="54" viewBox="0 0 64 64" width="52" xmlns="http://www.w3.org/2000/svg" data-name="Layer 1"><path d="m40.5 45h-30.5a5.006 5.006 0 0 1 -5-5v-24a5.006 5.006 0 0 1 5-5h38a5.006 5.006 0 0 1 5 5v17.06a1 1 0 0 1 -2 0v-17.06a3 3 0 0 0 -3-3h-38a3 3 0 0 0 -3 3v24a3 3 0 0 0 3 3h30.5a1 1 0 0 1 0 2z"/><path d="m52 28h-46a1 1 0 0 1 -1-1v-6a1 1 0 0 1 1-1h46a1 1 0 0 1 1 1v6a1 1 0 0 1 -1 1zm-45-2h44v-4h-44z"/><path d="m40 34h-4a1 1 0 0 1 0-2h4a1 1 0 0 1 0 2z"/><path d="m32 34h-4a1 1 0 0 1 0-2h4a1 1 0 0 1 0 2z"/><path d="m24 40h-12a1 1 0 0 1 -1-1v-6a1 1 0 0 1 1-1h12a1 1 0 0 1 1 1v6a1 1 0 0 1 -1 1zm-11-2h10v-4h-10z"/><path d="m49 53a1.025 1.025 0 0 1 -.234-.027 12.814 12.814 0 0 1 -9.766-12.298v-6.747a1 1 0 0 1 .975-1 26.6 26.6 0 0 0 8.625-1.844 1.007 1.007 0 0 1 .8 0 22.211 22.211 0 0 0 8.6 1.844 1 1 0 0 1 1 1v6.747a12.814 12.814 0 0 1 -9.766 12.3 1.025 1.025 0 0 1 -.234.025zm-8-18.128v5.8a10.8 10.8 0 0 0 8 10.294 10.8 10.8 0 0 0 8-10.294v-5.772a24.528 24.528 0 0 1 -8-1.813 27.972 27.972 0 0 1 -8 1.785z"/><path d="m48 45a1 1 0 0 1 -.555-.168l-3-2a1 1 0 0 1 1.11-1.664l2.318 1.545 4.92-4.92a1 1 0 0 1 1.414 1.414l-5.5 5.5a1 1 0 0 1 -.707.293z"/></svg>