<?xml version="1.0" encoding="UTF-8"?>
<svg xmlns="http://www.w3.org/2000/svg" xmlns:xlink="http://www.w3.org/1999/xlink" width="20px" height="30px" viewBox="0 0 30 30" version="1.1">
<g id="surface1">
<path style=" stroke:none;fill-rule:nonzero;fill:#a3bbc8;fill-opacity:1;" d="M 24.082031 10.59375 L 23.566406 11.109375 L 26.730469 14.273438 L 0.773438 14.273438 L 0.773438 15.726562 L 26.730469 15.726562 L 23.566406 18.890625 L 24.089844 19.410156 L 24.609375 19.933594 L 26.84375 17.699219 C 28.449219 16.09375 29.101562 15.425781 29.148438 15.34375 C 29.207031 15.234375 29.214844 15.199219 29.214844 15 C 29.214844 14.8125 29.207031 14.761719 29.160156 14.671875 C 29.121094 14.597656 28.414062 13.875 26.863281 12.320312 C 25.632812 11.089844 24.617188 10.078125 24.609375 10.078125 C 24.601562 10.078125 24.367188 10.308594 24.082031 10.59375 Z M 24.082031 10.59375 "/>
</g>
</svg>
