<?xml version="1.0" encoding="UTF-8"?>
<svg xmlns="http://www.w3.org/2000/svg" xmlns:xlink="http://www.w3.org/1999/xlink" width="14px" height="14px" viewBox="0 0 14 14" version="1.1">
<g id="surface1">
<path style=" stroke:none;fill-rule:nonzero;fill:#ffffff;fill-opacity:1;" d="M 10.113281 6.949219 C 10.265625 6.96875 10.382812 7.074219 10.503906 7.199219 C 11.324219 8.070312 11.796875 9.246094 11.808594 10.460938 C 11.8125 11.273438 10.972656 11.871094 10.109375 12.191406 C 8.714844 12.703125 7.167969 12.777344 5.671875 12.597656 C 4.6875 12.476562 3.683594 12.273438 2.867188 11.652344 C 2.496094 11.375 2.1875 10.960938 2.191406 10.460938 C 2.203125 9.226562 2.6875 8.035156 3.535156 7.15625 C 3.75 6.929688 4.15625 6.90625 4.304688 7.214844 C 4.394531 7.40625 4.3125 7.609375 4.152344 7.78125 C 3.480469 8.484375 3.085938 9.453125 3.066406 10.417969 C 3.058594 10.78125 3.4375 11.019531 3.789062 11.195312 C 4.699219 11.648438 5.746094 11.78125 6.785156 11.796875 C 7.914062 11.820312 9.074219 11.710938 10.089844 11.25 C 10.382812 11.125 10.679688 10.96875 10.855469 10.703125 C 10.957031 10.558594 10.9375 10.351562 10.917969 10.164062 C 10.84375 9.238281 10.425781 8.351562 9.765625 7.691406 C 9.765625 7.691406 9.664062 7.574219 9.644531 7.460938 C 9.597656 7.203125 9.828125 6.9375 10.113281 6.949219 Z M 7.019531 1.3125 C 8.140625 1.320312 9.226562 1.996094 9.734375 2.992188 C 10.152344 3.828125 10.164062 4.859375 9.757812 5.695312 C 9.097656 7.074219 7.324219 7.820312 5.828125 7.195312 C 4.847656 6.789062 4.117188 5.847656 3.96875 4.796875 C 3.835938 3.84375 4.1875 2.824219 4.890625 2.15625 C 5.445312 1.625 6.199219 1.320312 6.980469 1.3125 Z M 6.984375 2.1875 C 5.988281 2.195312 5.058594 2.953125 4.859375 3.933594 C 4.710938 4.644531 4.953125 5.429688 5.472656 5.933594 C 6.074219 6.527344 7.03125 6.722656 7.824219 6.398438 C 8.75 6.019531 9.335938 4.945312 9.148438 3.960938 C 8.960938 2.988281 8.054688 2.210938 7.039062 2.1875 C 7.023438 2.1875 7.003906 2.1875 6.984375 2.1875 Z M 6.984375 2.1875 "/>
</g>
</svg>
